<?xml version="1.0" encoding="UTF-8" standalone="no"?>
<svg width="884px" height="187px" viewBox="0 0 884 187" version="1.1" xmlns="http://www.w3.org/2000/svg" xmlns:xlink="http://www.w3.org/1999/xlink">
    <!-- Generator: Sketch 42 (36781) - http://www.bohemiancoding.com/sketch -->
    <title>Group</title>
    <desc>Created with Sketch.</desc>
    <defs></defs>
    <g id="Page-1" stroke="none" stroke-width="1" fill="none" fill-rule="evenodd">
        <g id="Group" fill="#131617">
            <polygon id="Fill-3" points="210.057 57.0341 246.485 57.0341 246.485 184.1491 301.518 184.1491 301.518 57.0341 337.947 57.0341 337.947 2.7781 210.057 2.7781"></polygon>
            <polygon id="Fill-4" points="368.951 3.554 423.982 3.554 423.982 184.152 368.951 184.152"></polygon>
            <path d="M640.3675,78.4484 C641.0485,82.9674 641.3955,88.7544 641.3955,93.4634 C641.3955,144.6144 599.9285,186.0904 548.7715,186.0904 C497.6175,186.0904 456.1505,144.6144 456.1505,93.4634 C456.1505,42.3094 497.6175,0.8394 548.7715,0.8394 C568.9515,0.8394 587.6245,7.2924 602.8385,18.2474 L573.2195,56.4014 C566.2085,51.7654 557.8065,49.0694 548.7715,49.0694 C524.2535,49.0694 504.3775,68.9454 504.3775,93.4634 C504.3775,117.9784 524.2535,137.8584 548.7715,137.8584 C566.0305,137.8584 580.9845,128.0104 588.3315,113.6324 L553.0365,113.6324 L553.0365,78.3494 L640.3675,78.4484 Z" id="Fill-6"></path>
            <path d="M0.7814,130.2808 C0.7814,130.2808 22.4894,136.2578 82.9414,60.9098 C136.4214,-5.7502 181.3794,2.7768 185.6414,2.7768 L185.6414,58.5848 C185.6414,58.5848 150.4544,53.4778 104.2554,120.5908 C63.1764,180.2748 20.5464,184.5378 0.7814,184.5378 L0.7814,130.2808 Z" id="Fill-8"></path>
            <path d="M730.1463,100.051 L730.1463,54.707 C730.1463,54.707 745.2603,53.545 749.1343,60.909 C752.0443,66.439 779.3633,100.051 779.3633,100.051 L730.1463,100.051 Z M827.0323,77.575 C794.4433,31.591 775.8753,1.613 746.0353,1.613 L675.5013,1.613 L675.5013,181.437 L730.1463,181.437 L730.1463,147.332 L814.6313,147.332 C814.6313,147.332 835.1683,180.274 884,180.274 L884,122.53 C884,122.53 855.322,117.491 827.0323,77.575 L827.0323,77.575 Z" id="Fill-9"></path>
        </g>
    </g>
</svg>